# xmcd
#
# Track frame offsets: 
#        150
#        17245
#        32853
#        50550
#        63639
#        78461
#
# Disc length: 1260 seconds
#
# Revision: 0
# Processed by: cddbd v1.5.2PL0 Copyright (c) Steve Scherf et al.
# Submitted via: ExactAudioCopy v0.99pb3
#
DISCID=4e04ea06
DTITLE=Power Man's Grave - Power Man's Grave 2006
DYEAR=2006
DGENRE=Country Rock
TTITLE0=Drivin' My Life Away
TTITLE1=What Kind Of Fool
TTITLE2=Dust in The Bottle
TTITLE3=It Wouldn't Hurt To Have Wings
TTITLE4=Tempted
TTITLE5=Lay Down Sally
EXTD=
EXTT0=
EXTT1=
EXTT2=
EXTT3=
EXTT4=
EXTT5=
PLAYORDER=
